<svg width="64" height="64" viewBox="0 0 64 64" fill="none" xmlns="http://www.w3.org/2000/svg">
<rect x="2" y="2" width="60" height="60" fill="#E7E7E3" stroke="#29A880" stroke-width="4"/>
<path fill-rule="evenodd" clip-rule="evenodd" d="M40.4742 28.8335H44.7927C49.8778 28.8335 54 24.6174 54 19.4166C54 14.2161 49.8778 10 44.7927 10C39.7074 10 35.5852 14.2161 35.5852 19.4166V23.8333H28.415V19.4166C28.415 14.2161 24.2924 10 19.2073 10C14.1224 10 10 14.2161 10 19.4166C10 24.6174 14.1224 28.8335 19.2073 28.8335H23.526V36.1667H19.2073C14.1224 36.1667 10 40.3828 10 45.5834C10 50.7841 14.1224 55 19.2073 55C24.2924 55 28.415 50.7841 28.415 45.5834V41.1668H35.5852V45.5834C35.5852 50.7841 39.7074 55 44.7927 55C49.8778 55 54 50.7841 54 45.5834C54 40.3828 49.8778 36.1667 44.7927 36.1667H40.4742V28.8335ZM40.4742 23.8333V19.4166C40.4742 16.9773 42.4078 15 44.7927 15C47.1778 15 49.1112 16.9773 49.1112 19.4166C49.1112 21.8558 47.1778 23.8333 44.7927 23.8333H40.4742ZM40.4742 45.5834C40.4742 48.0225 42.4078 50 44.7927 50C47.1778 50 49.1112 48.0225 49.1112 45.5834C49.1112 43.1443 47.1778 41.1668 44.7927 41.1668H40.4742V45.5834ZM23.526 41.1668V45.5834C23.526 47.3697 22.4736 48.9804 20.8601 49.6639C19.2463 50.3477 17.3888 49.9697 16.1537 48.7064C14.9187 47.4435 14.5491 45.5434 15.2176 43.8933C15.8859 42.2426 17.4607 41.1668 19.2073 41.1668H23.526ZM23.526 19.4166C23.526 16.9773 21.5924 15 19.2073 15C16.8222 15 14.8888 16.9773 14.8888 19.4166C14.8888 21.8558 16.8222 23.8333 19.2073 23.8333H23.526V19.4166ZM28.415 28.8335V36.1667H35.5852V28.8335H28.415Z" fill="#29A880"/>
</svg>
