<svg width="64" height="64" fill="none" xmlns="http://www.w3.org/2000/svg"><path stroke="red" stroke-width="4" d="M2 2h60v60H2z"/><path d="M50 12L6 46v5l45-33c2 1 5 2 5-2s-4-4-6-4z" fill="red"/><path d="M54 56l-6-35 3-3 6 38h-3z" fill="red"/><path d="M9 56h49v2H6v-8l3-1v7z" fill="red"/><path d="M39 39h-4c-2-3-5-2-6 0l-2 15h4v1h13c0-1 0-4 2-4 2-1 3 2 3 4h4l-1-2-10-13c2-3 4-7 2-8-3-1-5 4-5 7zM47 18l2 6h3l-1-8-4 2z" fill="red"/><path d="M44 57v-3l-13 1v2h13zM49 57v-2l4-1 2 1v2h-6z" fill="red"/></svg>