<?xml version="1.0" standalone="no"?>
<!DOCTYPE svg PUBLIC "-//W3C//DTD SVG 20010904//EN"
 "http://www.w3.org/TR/2001/REC-SVG-20010904/DTD/svg10.dtd">
<svg version="1.0" xmlns="http://www.w3.org/2000/svg"
 width="570.000000pt" height="570.000000pt" viewBox="0 0 570.000000 570.000000"
 preserveAspectRatio="xMidYMid meet">
<metadata>
Created by potrace 1.11, written by Peter Selinger 2001-2013
</metadata>
<g transform="translate(0.000000,570.000000) scale(0.100000,-0.100000)"
fill="#000000" stroke="none">
<path d="M2690 4139 c-19 -4 -51 -9 -70 -12 -54 -8 -182 -44 -234 -66 -25 -11
-48 -20 -51 -21 -3 0 -33 -14 -66 -32 -34 -18 -76 -41 -93 -50 -18 -9 -38 -23
-45 -32 -8 -9 -17 -16 -22 -16 -5 0 -20 -9 -33 -21 -13 -12 -27 -21 -29 -21
-16 1 -225 -224 -246 -266 -7 -12 -17 -20 -23 -16 -7 4 -8 3 -4 -5 4 -6 -1
-23 -12 -39 -27 -38 -92 -162 -85 -162 3 0 -1 -7 -8 -16 -7 -9 -14 -23 -16
-32 -1 -9 -7 -18 -12 -20 -6 -2 -11 -15 -11 -28 0 -17 -4 -23 -12 -18 -10 5
-10 4 -1 -6 8 -8 9 -18 4 -24 -5 -6 -11 -22 -13 -36 -3 -22 -7 -17 -32 33 -38
75 -62 97 -41 37 8 -24 14 -45 12 -46 -2 -2 -16 17 -32 42 -29 46 -56 73 -36
37 6 -11 7 -24 3 -28 -4 -5 -1 -4 7 0 11 6 13 4 8 -9 -7 -17 9 -54 28 -68 6
-5 5 -8 -2 -8 -17 0 -17 -27 0 -33 7 -4 8 -6 1 -6 -6 -1 -17 6 -25 15 -10 13
-10 17 0 24 18 11 2 19 -31 15 -22 -3 -32 3 -44 24 -9 15 -26 34 -38 41 -20
12 -21 12 -3 -7 10 -11 22 -34 27 -52 8 -28 7 -30 -10 -21 -11 6 -16 17 -13
28 2 10 -3 25 -13 33 -16 13 -16 12 -6 -8 14 -26 15 -36 3 -28 -5 3 -13 0 -17
-6 -4 -7 -3 -10 2 -8 5 3 23 -10 41 -27 30 -30 31 -33 13 -39 -11 -4 -20 -15
-20 -26 0 -16 5 -19 23 -15 12 3 17 3 10 0 -7 -3 -9 -13 -6 -22 3 -11 2 -13
-4 -5 -10 15 -39 0 -29 -15 3 -6 -3 -13 -14 -17 -20 -7 -28 -25 -10 -25 6 0
10 4 10 8 0 5 11 14 25 20 21 10 25 9 25 -4 0 -9 5 -12 12 -8 7 4 8 3 4 -4 -4
-7 -17 -12 -30 -12 -12 0 -31 -7 -42 -15 -18 -14 -17 -14 9 -5 38 13 42 13 27
-4 -6 -8 -20 -16 -30 -18 -17 -3 -17 -5 -4 -23 12 -16 17 -17 23 -6 5 7 17 11
26 9 17 -3 18 -4 2 -20 -29 -29 -19 -37 23 -17 21 10 44 19 50 19 5 0 10 5 10
10 0 6 7 10 15 10 8 0 15 5 15 11 0 5 4 8 9 5 5 -4 11 0 14 6 2 7 8 10 12 6
14 -13 -14 -61 -31 -54 -8 3 -13 2 -10 -3 7 -11 -22 -23 -35 -15 -5 3 -9 -1
-9 -9 0 -7 -7 -14 -15 -15 -8 -1 -22 -3 -30 -4 -18 -2 -11 -11 10 -14 8 -1 15
2 15 7 0 6 5 7 10 4 11 -7 5 -41 -17 -94 -14 -32 -15 -32 -34 -15 -10 9 -19
13 -19 8 0 -5 -8 3 -17 16 -10 14 -17 29 -15 33 1 5 -2 6 -7 2 -11 -6 35 -91
69 -127 27 -29 16 -37 -13 -10 -13 12 -28 22 -34 22 -6 0 -17 13 -25 30 -7 16
-18 32 -25 34 -6 3 -2 -18 11 -47 29 -66 41 -111 26 -102 -5 3 -17 21 -26 38
-9 18 -26 44 -38 58 -12 15 -26 35 -32 45 -10 17 -12 16 -28 -14 -9 -18 -21
-30 -26 -27 -6 3 -7 -1 -4 -9 3 -8 0 -25 -7 -38 -7 -13 -12 -30 -10 -38 2 -10
-3 -8 -13 5 -15 20 -15 20 -10 -1 3 -12 1 -25 -5 -28 -7 -4 -9 -1 -5 8 3 8 1
23 -5 33 -9 16 -10 14 -11 -10 0 -16 -4 -26 -10 -22 -11 7 -9 33 3 52 7 12 1
108 -8 123 -2 3 5 26 16 50 11 27 13 37 4 25 -8 -11 -19 -25 -24 -31 -5 -7 -9
-36 -9 -65 1 -93 -2 -115 -11 -101 -4 8 -8 23 -7 35 1 12 -3 25 -8 29 -5 3
-10 29 -10 56 -1 28 -4 54 -8 58 -5 4 -8 18 -8 31 0 12 -4 23 -10 23 -12 0
-12 -3 -1 -33 5 -13 5 -30 1 -37 -6 -10 -11 -4 -18 21 -7 24 -10 27 -11 12 -1
-28 21 -123 28 -123 3 0 7 -17 8 -38 l2 -37 -19 25 c-11 14 -20 29 -20 34 0 5
-6 3 -14 -3 -12 -10 -14 -7 -10 18 5 32 -10 67 -49 114 -21 25 -25 26 -36 13
-7 -8 -11 -21 -8 -28 3 -8 8 -4 14 11 10 24 10 24 15 3 4 -12 3 -20 -2 -17 -4
3 -11 -2 -14 -11 -8 -21 -8 -24 5 -24 5 0 7 5 4 10 -3 6 -2 10 3 10 5 0 12 -8
14 -18 4 -13 -1 -18 -18 -18 -12 0 -22 2 -21 6 1 3 -2 5 -8 5 -5 0 -9 -4 -7
-8 1 -5 -3 -5 -9 -2 -8 5 -8 10 0 18 6 6 11 18 11 26 0 9 -6 7 -20 -9 -11 -13
-20 -18 -20 -11 0 7 -5 9 -10 6 -6 -4 3 -18 20 -33 16 -15 30 -33 30 -42 0
-13 -2 -13 -9 -1 -8 12 -12 12 -25 2 -9 -8 -16 -10 -16 -5 0 5 -5 2 -11 -6 -9
-13 -10 -13 -6 0 2 8 9 14 15 13 6 -2 9 4 6 12 -4 8 -10 12 -15 9 -8 -5 -13
16 -10 41 1 6 -5 1 -14 -9 -14 -19 -16 -18 -46 13 -22 24 -34 30 -42 22 -8 -8
-5 -16 10 -30 11 -11 24 -17 27 -14 3 4 15 -4 26 -17 27 -31 25 -38 -2 -13
-13 11 -28 19 -33 17 -6 -3 -21 6 -34 18 -13 12 -22 16 -20 10 2 -6 26 -27 54
-47 27 -19 44 -35 37 -35 -6 0 -12 -5 -12 -11 0 -5 4 -8 8 -5 4 2 14 0 22 -6
12 -8 12 -9 -3 -4 -9 3 -17 2 -17 -3 0 -4 -19 -12 -42 -17 -23 -5 -43 -15 -46
-22 -3 -10 5 -10 33 2 49 21 55 20 25 -1 -14 -10 -28 -17 -32 -15 -5 1 -8 -3
-8 -9 0 -5 -4 -8 -9 -5 -17 11 -31 -21 -27 -58 6 -40 4 -41 -27 -25 -17 8 -16
5 6 -14 25 -22 26 -26 10 -30 -15 -3 -14 -6 7 -16 l25 -11 -27 5 c-23 4 -26 2
-21 -12 5 -14 2 -13 -13 4 -16 17 -24 19 -39 11 -17 -9 -18 -8 -7 3 19 21 14
29 -13 19 -17 -6 -25 -6 -25 1 0 6 -4 7 -10 4 -5 -3 -10 0 -10 7 0 9 -3 9 -10
-2 -9 -14 1 -34 18 -36 13 -1 62 -23 62 -28 0 -2 -8 -3 -18 -1 -9 2 -22 4 -29
4 -6 1 -19 9 -29 19 -10 9 -20 17 -23 18 -30 4 -61 18 -61 28 0 6 -4 5 -9 -3
-7 -11 -12 -9 -27 8 -11 13 -31 29 -46 37 -24 13 -27 12 -22 -1 4 -8 16 -15
28 -15 12 0 16 -3 10 -8 -18 -12 -22 -47 -8 -67 8 -10 14 -22 14 -26 0 -12
-54 4 -70 21 -8 9 -11 10 -6 3 5 -8 7 -16 4 -18 -8 -8 -39 6 -33 14 2 4 -2 8
-10 8 -20 0 -19 -4 10 -31 21 -20 23 -25 10 -30 -9 -3 -14 -2 -10 3 3 5 -7 19
-21 30 -29 23 -49 28 -38 9 4 -7 3 -8 -4 -4 -6 4 -9 13 -5 22 4 11 9 12 19 3
17 -14 19 2 2 19 -18 18 -41 15 -34 -4 3 -8 2 -12 -4 -9 -14 9 -12 32 3 38 6
3 3 6 -9 6 -11 1 -25 6 -31 12 -14 14 -13 -21 2 -38 6 -7 16 -19 23 -28 10
-12 10 -15 -1 -15 -7 0 -19 6 -26 13 -11 10 -11 8 0 -10 7 -12 16 -20 19 -18
4 2 13 -5 20 -16 8 -10 20 -19 28 -19 7 0 23 -10 35 -21 21 -20 21 -21 1 -11
-11 6 -33 13 -48 15 -15 2 -32 10 -37 18 -7 11 -9 10 -9 -5 0 -15 -3 -16 -15
-6 -13 11 -14 10 -6 -11 5 -14 15 -23 24 -21 9 1 18 -2 22 -8 3 -5 17 -10 31
-10 13 0 24 -5 24 -11 0 -6 -6 -9 -14 -6 -7 3 -19 0 -25 -6 -8 -8 -14 -8 -19
-2 -4 6 -15 11 -25 11 -14 2 -15 -1 -6 -13 7 -8 8 -13 3 -12 -5 1 -17 1 -27 0
-27 -2 -10 -21 19 -21 14 0 23 -4 19 -9 -3 -6 4 -9 15 -8 13 1 19 6 15 15 -3
8 0 10 8 5 6 -4 19 -6 29 -5 9 2 19 -1 22 -6 3 -6 0 -9 -7 -9 -17 2 -97 -25
-97 -32 0 -14 49 -28 59 -18 8 8 11 8 11 0 0 -7 -8 -14 -18 -17 -21 -7 -25
-36 -5 -36 7 0 13 7 13 15 0 8 7 15 15 15 8 0 15 6 15 13 0 9 3 8 9 -2 6 -9
11 -10 15 -2 4 6 13 11 19 11 7 0 4 -5 -5 -11 -10 -5 -18 -16 -18 -24 0 -12 4
-12 27 0 15 8 31 12 35 9 5 -3 18 2 28 11 10 9 24 17 32 19 7 1 18 5 25 9 22
14 23 -12 1 -30 -13 -10 -30 -27 -38 -38 -15 -20 -14 -20 8 -1 27 24 42 13 18
-13 -12 -13 -14 -21 -6 -26 6 -3 9 -1 8 7 -2 7 8 14 22 16 14 2 34 11 45 21
48 41 52 43 58 22 3 -11 -1 -26 -9 -32 -12 -10 -13 -8 -8 7 10 27 0 14 -18
-23 -13 -26 -13 -30 -2 -26 8 3 14 10 14 16 0 6 3 7 6 4 4 -4 19 2 34 13 16
11 32 20 37 20 4 0 3 -4 -3 -8 -5 -4 -18 -24 -28 -45 -17 -37 -20 -38 -52 -32
-22 4 -34 2 -34 -5 0 -6 4 -8 10 -5 6 3 10 1 10 -6 0 -7 3 -9 7 -6 3 4 12 -5
20 -19 17 -34 17 -39 -2 -24 -11 9 -15 9 -15 1 0 -9 -6 -9 -22 -1 -21 10 -22
10 -5 -4 11 -8 26 -12 35 -9 10 4 13 2 8 -5 -4 -7 -16 -12 -27 -12 -10 0 -19
-4 -19 -9 0 -5 11 -8 25 -8 14 0 25 3 25 8 0 5 7 6 15 3 8 -4 22 -1 29 5 11 9
16 9 22 0 5 -8 3 -9 -6 -4 -9 5 -11 4 -6 -4 5 -8 15 -6 36 9 50 36 56 20 9
-28 -17 -18 -28 -32 -25 -32 4 0 2 -10 -5 -21 -9 -17 -8 -20 3 -17 7 3 13 14
12 26 0 12 3 19 7 16 5 -3 18 5 29 16 23 23 41 20 22 -3 -16 -19 -33 -67 -23
-67 11 0 57 111 53 128 -2 8 1 11 8 7 6 -4 8 -15 5 -24 -8 -26 5 -57 16 -39 7
10 9 9 9 -4 0 -10 -4 -18 -8 -18 -4 0 -8 -10 -9 -22 -2 -22 -1 -22 13 -4 14
19 18 46 16 96 -1 23 -1 23 8 5 6 -14 9 -15 9 -5 1 13 3 13 10 0 6 -8 7 -18 5
-22 -3 -4 -1 -8 5 -8 5 0 13 9 16 20 4 11 10 18 14 15 5 -2 6 7 3 20 -2 15 0
25 7 25 6 0 11 -6 11 -14 0 -8 3 -17 8 -20 10 -6 8 54 -3 78 -5 11 -4 26 4 38
6 10 9 23 6 28 -4 6 -1 10 4 10 15 0 14 -53 -1 -68 -9 -9 -8 -12 4 -12 11 0
15 -7 12 -22 -2 -13 1 -8 8 10 10 30 28 44 28 21 0 -5 5 -7 12 -3 8 5 9 1 5
-12 -7 -18 -6 -17 10 1 10 12 27 27 37 35 18 14 18 13 12 -10 -6 -23 -6 -24 5
-5 23 37 42 51 47 37 3 -9 8 -6 16 9 16 32 34 35 29 4 -3 -14 -9 -25 -14 -25
-5 0 -9 -5 -9 -11 0 -5 5 -7 12 -3 7 4 8 3 4 -4 -4 -7 -12 -12 -18 -12 -15 0
-58 -36 -51 -44 4 -3 16 2 27 11 l21 18 -19 -23 c-11 -12 -25 -21 -32 -18 -8
3 -11 0 -8 -8 6 -15 -63 -79 -76 -71 -6 3 -10 1 -10 -4 0 -6 5 -11 10 -11 10
0 59 28 70 40 3 3 13 6 23 8 9 1 24 3 33 5 9 1 18 -4 20 -11 1 -7 0 -8 -3 -2
-6 13 -23 13 -23 -1 0 -6 -6 -17 -14 -24 -10 -11 -16 -11 -25 -2 -9 9 -10 7
-5 -8 7 -18 6 -19 -10 -6 -15 12 -19 12 -34 -4 -16 -16 -16 -17 5 -6 15 7 24
8 28 1 4 -6 11 -8 16 -5 12 8 11 3 -1 -30 -7 -17 -7 -24 0 -20 6 3 10 12 10
18 0 7 10 21 22 32 26 22 71 30 65 12 -2 -7 -10 -12 -18 -12 -13 0 -48 -61
-54 -94 -1 -9 -8 -15 -15 -13 -6 1 -9 -2 -5 -8 11 -17 22 -11 35 20 7 16 11
30 9 32 -6 6 22 48 33 48 7 0 6 -5 -2 -15 -7 -8 -9 -15 -4 -15 5 0 17 14 26
31 10 17 22 28 27 25 10 -7 9 -25 -2 -43 -5 -8 -3 -13 6 -13 20 0 32 51 15 61
-7 5 -8 9 -2 9 6 0 9 13 6 33 -3 17 -1 29 4 24 4 -4 9 -18 11 -30 5 -36 33
-127 39 -127 3 0 2 10 -1 22 -6 16 -4 20 8 15 11 -4 14 -2 10 9 -3 8 -8 12
-11 9 -3 -3 -12 14 -19 37 -15 49 -16 68 -5 53 4 -5 16 -15 26 -21 11 -5 20
-18 22 -28 1 -10 6 -21 10 -24 4 -4 4 2 1 13 -7 20 -7 20 8 1 17 -22 20 -40 5
-31 -6 4 -7 -1 -3 -11 4 -10 8 -13 10 -7 3 7 11 9 19 6 8 -3 14 -1 14 5 0 6
-6 13 -12 15 -7 3 0 6 16 6 20 1 27 5 23 15 -3 8 1 17 9 20 25 10 25 8 1 -31
-13 -21 -26 -43 -30 -48 -3 -6 3 -12 14 -12 11 -1 17 2 14 6 -8 14 31 51 55
51 19 0 20 -2 10 -15 -20 -24 -6 -27 23 -5 14 11 29 20 34 20 4 0 0 -5 -10
-11 -9 -6 -14 -15 -11 -21 4 -7 2 -8 -4 -4 -15 9 -16 -6 -2 -20 8 -8 5 -15 -7
-25 -16 -13 -17 -12 -5 3 9 11 10 18 2 23 -5 3 -10 1 -10 -6 0 -7 -6 -4 -14 6
-14 19 -16 18 -51 -19 -20 -21 -33 -41 -30 -45 4 -3 18 8 31 24 13 17 24 26
24 20 0 -5 5 -3 10 5 6 9 10 10 10 3 0 -7 -14 -28 -30 -47 -18 -20 -26 -37
-20 -41 15 -9 32 5 26 21 -3 7 0 16 6 20 6 4 8 3 4 -4 -3 -6 -2 -13 3 -16 5
-4 12 3 16 14 3 11 10 20 15 20 4 0 3 -13 -3 -29 -6 -17 -14 -28 -17 -26 -3 2
-5 -11 -5 -28 1 -18 -4 -36 -9 -40 -7 -5 -5 -7 4 -4 8 2 14 10 12 16 -1 6 5
14 14 18 11 4 12 8 4 13 -8 5 -7 9 3 13 16 6 17 -9 3 -32 -5 -7 -5 -16 0 -20
12 -8 11 -34 -1 -44 -6 -5 -4 -7 5 -4 8 2 14 11 12 21 -4 20 2 20 23 0 12 -13
19 -14 30 -4 10 8 15 9 15 2 0 -13 -31 -31 -45 -26 -5 2 -18 -7 -27 -20 -13
-18 -14 -23 -2 -23 8 0 14 7 14 14 0 8 4 12 9 8 5 -3 12 -1 16 5 12 20 25 -1
14 -23 -9 -20 -9 -21 5 -4 14 18 15 18 25 0 6 -10 11 -13 11 -7 0 5 -5 15 -11
21 -12 12 4 53 21 53 13 0 13 -17 0 -25 -5 -3 -7 -12 -3 -21 4 -11 9 -12 19
-3 9 8 14 8 14 1 0 -6 -5 -14 -10 -17 -6 -4 -7 -11 -4 -17 6 -10 27 19 40 55
5 13 10 15 20 6 10 -8 12 -6 9 11 -2 13 -1 19 3 16 4 -4 7 -11 8 -14 3 -27 18
-62 26 -62 5 0 6 9 3 20 -3 11 -2 20 3 20 6 0 16 -19 24 -42 7 -23 20 -43 28
-46 13 -3 13 -2 0 7 -8 5 -11 13 -7 17 3 4 15 1 24 -6 10 -7 6 -1 -9 13 -15
14 -30 37 -34 52 -4 17 -11 24 -20 21 -8 -3 -14 1 -14 10 0 8 5 12 11 8 8 -4
8 0 0 15 -7 12 -8 21 -2 21 5 0 7 10 4 23 -4 19 -3 20 7 5 15 -25 34 -23 20 1
-12 24 -13 31 -1 31 12 0 26 -39 22 -60 -2 -10 3 -8 13 5 18 23 21 13 6 -16
-9 -15 -7 -19 5 -19 9 0 14 -4 10 -9 -3 -5 -1 -13 5 -16 6 -4 9 -1 8 7 -2 8 5
12 19 10 12 -2 24 1 27 7 3 5 -2 7 -11 5 -10 -2 -25 0 -33 6 -12 8 -13 13 -2
30 8 13 9 20 1 20 -6 0 -16 6 -23 13 -18 18 -50 81 -38 73 6 -3 13 0 15 6 3 8
6 6 6 -4 1 -10 5 -18 10 -18 6 0 8 -9 6 -19 -2 -11 3 -25 11 -32 13 -10 13 -8
5 14 -7 18 -7 28 0 33 6 4 2 16 -13 32 -17 20 -18 23 -3 11 11 -9 27 -14 35
-12 13 4 13 3 0 -6 -10 -7 -11 -11 -2 -11 6 0 12 -5 12 -11 0 -5 -5 -7 -11 -3
-7 4 -10 1 -7 -7 4 -11 58 -33 58 -23 0 2 -9 13 -20 24 -11 11 -17 26 -14 35
4 8 1 15 -5 15 -18 0 -71 42 -65 52 3 4 0 8 -6 8 -6 0 -8 5 -5 11 4 6 19 -3
38 -22 17 -18 28 -25 24 -16 -10 27 7 19 25 -10 8 -16 13 -34 11 -40 -3 -7 2
-13 10 -13 16 0 13 34 -6 58 -6 8 -6 12 2 12 6 0 11 7 11 17 0 9 -3 13 -6 10
-4 -4 -15 3 -26 15 -10 12 -16 24 -13 27 4 3 10 -1 14 -8 5 -8 26 -13 50 -13
22 0 41 -4 41 -9 0 -6 -5 -7 -12 -3 -7 5 -8 3 -3 -5 10 -17 27 1 20 20 -3 8
-20 16 -37 17 -21 2 -42 14 -65 38 -38 41 -41 49 -12 34 26 -15 34 -7 20 19
-8 14 -8 22 1 27 6 4 8 3 5 -3 -6 -9 12 -29 56 -62 24 -19 21 -6 -5 19 -12 11
-18 20 -14 20 4 0 -7 15 -23 33 -17 17 -31 36 -31 41 0 4 -7 5 -16 2 -9 -3
-27 3 -41 14 -14 11 -22 20 -18 20 5 0 17 -7 27 -17 31 -28 29 -9 -2 24 -30
32 -39 63 -20 63 6 0 10 -6 10 -14 0 -7 10 -16 23 -20 18 -5 20 -8 7 -16 -14
-9 -6 -15 15 -10 6 1 7 -1 4 -5 -4 -3 3 -16 15 -29 11 -12 29 -33 40 -47 46
-59 124 -147 160 -179 21 -19 52 -47 68 -62 16 -16 31 -28 33 -28 13 0 83 -58
77 -64 -3 -4 1 -4 11 0 10 3 17 1 17 -5 0 -6 4 -11 10 -11 5 0 33 -14 62 -31
29 -17 58 -32 63 -33 33 -7 54 -19 49 -28 -4 -7 -2 -8 5 -4 11 7 109 -21 121
-34 3 -3 12 -5 20 -5 8 1 26 -3 40 -8 14 -5 39 -10 55 -13 17 -2 41 -7 55 -10
36 -10 383 -12 395 -3 6 4 27 10 49 13 21 4 41 8 45 11 4 2 18 6 32 9 38 7
170 53 214 75 29 14 44 16 53 9 9 -8 11 -7 6 6 -4 10 0 18 12 23 17 6 78 42
128 75 10 7 46 36 79 63 33 28 65 49 71 47 6 -2 8 -1 4 3 -9 9 32 55 49 55 8
0 12 4 9 9 -8 12 19 33 29 23 5 -4 5 -2 2 4 -3 6 1 20 11 30 9 10 30 38 46 61
16 24 31 41 35 39 4 -3 8 5 8 17 1 12 7 23 13 25 5 2 10 10 10 17 0 8 8 19 18
24 9 6 14 11 10 11 -4 0 3 21 16 48 62 124 92 205 103 279 3 18 8 31 12 29 3
-2 7 11 8 30 1 19 3 48 6 64 2 17 4 55 5 86 1 39 5 53 14 48 7 -5 8 -3 2 7 -5
8 -9 48 -10 89 -1 41 -4 86 -8 100 -3 14 -7 41 -10 60 -2 19 -9 57 -15 83 -6
27 -8 53 -5 59 4 6 3 8 -2 5 -13 -7 -38 78 -28 94 4 7 3 9 -4 5 -13 -8 -26 29
-16 46 4 7 3 10 -1 5 -5 -4 -32 37 -60 90 -57 110 -110 187 -169 252 -23 24
-40 48 -38 53 1 5 -2 7 -7 4 -5 -4 -16 2 -23 11 -7 10 -40 41 -73 68 -33 28
-61 53 -63 58 -2 4 -10 7 -18 7 -8 0 -14 4 -14 8 0 5 -20 19 -45 32 -25 13
-45 27 -45 32 0 4 -3 7 -7 6 -5 -1 -20 5 -35 12 -24 11 -26 16 -15 29 10 14
10 14 -4 3 -18 -14 -69 -1 -69 17 0 6 -7 8 -15 5 -8 -4 -15 -1 -15 6 0 6 -4 8
-10 5 -5 -3 -19 -1 -30 5 -12 6 -29 13 -38 15 -9 3 -51 13 -92 24 -41 12 -89
21 -107 21 -17 0 -34 4 -37 8 -6 11 -289 12 -336 1z m-1132 -975 c-3 -27 -4
-26 -9 8 -3 22 -1 34 4 29 5 -5 7 -21 5 -37z m32 5 c0 -6 -4 -7 -10 -4 -5 3
-10 11 -10 16 0 6 5 7 10 4 6 -3 10 -11 10 -16z m-140 1 c0 -5 -2 -10 -4 -10
-3 0 -8 5 -11 10 -3 6 -1 10 4 10 6 0 11 -4 11 -10z m-15 -50 c-3 -5 -11 -10
-16 -10 -6 0 -7 5 -4 10 3 6 11 10 16 10 6 0 7 -4 4 -10z m25 -60 c-27 -23
-30 -24 -30 -7 0 12 40 36 49 30 2 -2 -6 -12 -19 -23z m70 -21 c0 -6 -4 -7
-10 -4 -5 3 -10 11 -10 16 0 6 5 7 10 4 6 -3 10 -11 10 -16z m-10 -63 c-25
-13 -49 -22 -54 -19 -4 3 -2 9 5 14 7 4 17 5 21 3 5 -3 10 1 13 8 3 8 18 14
33 15 23 2 21 -1 -18 -21z m43 -92 c3 -3 -4 -21 -15 -40 -11 -19 -18 -38 -14
-41 3 -3 0 -13 -7 -21 -10 -13 -9 -14 10 -4 25 14 29 6 37 -68 3 -25 8 -63 11
-85 l5 -40 -26 50 c-14 28 -30 55 -36 62 -5 7 -6 18 -2 24 4 7 3 10 -2 7 -5
-3 -20 8 -34 25 -14 17 -19 28 -12 24 8 -6 12 -1 12 15 0 18 -2 20 -10 8 -5
-8 -10 -10 -10 -4 0 5 6 19 14 29 10 14 11 25 4 39 -7 12 -7 16 0 12 6 -3 13
-2 17 4 7 11 48 14 58 4z m-813 -59 c11 -13 10 -14 -4 -9 -9 3 -16 10 -16 15
0 13 6 11 20 -6z m809 -11 c-15 -18 -22 -13 -13 10 3 9 10 13 16 10 5 -3 4
-12 -3 -20z m-486 -14 c3 -11 1 -23 -4 -26 -5 -3 -9 6 -9 20 0 31 6 34 13 6z
m-103 -31 c0 -5 -4 -7 -10 -4 -5 3 -10 1 -10 -4 0 -6 5 -11 10 -11 6 0 10 -5
10 -12 0 -8 -6 -7 -16 4 -9 9 -13 21 -10 27 9 14 26 14 26 0z m365 -118 c6 -9
19 -29 29 -44 21 -31 15 -47 -9 -27 -12 10 -19 10 -27 2 -9 -9 -8 -12 3 -12 9
0 24 -10 35 -22 15 -19 16 -20 2 -9 -15 11 -18 11 -18 0 0 -11 -2 -11 -9 -1
-6 10 -11 10 -21 -3 -13 -16 -15 -15 -27 1 -7 10 -13 15 -13 11 0 -15 -49 26
-56 45 -5 16 -8 18 -15 7 -14 -23 -21 -2 -7 23 7 12 13 24 14 26 1 1 8 0 17
-4 13 -5 14 -9 4 -25 -9 -15 -8 -22 7 -36 17 -17 18 -17 12 4 -4 12 -1 31 6
43 11 19 10 24 -9 37 -23 15 -34 51 -11 37 6 -4 8 -3 4 4 -3 6 -1 22 5 36 l12
26 31 -51 c17 -29 36 -59 41 -68z m107 94 c9 10 17 -21 8 -34 -5 -9 -13 -4
-29 17 -26 37 -27 51 -3 29 10 -10 21 -15 24 -12z m-542 -29 c0 -3 -7 -3 -15
0 -8 4 -15 13 -15 21 0 12 2 12 15 -1 8 -8 15 -17 15 -20z m610 -8 c0 -6 -7
-5 -15 2 -8 7 -15 17 -15 22 0 6 7 5 15 -2 8 -7 15 -17 15 -22z m0 -32 c32
-30 60 -68 60 -81 0 -3 -6 -5 -14 -5 -21 0 -76 67 -76 93 0 18 -2 19 -10 7 -8
-13 -10 -12 -10 3 0 24 10 21 50 -17z m-65 -69 c1 -36 -3 -47 -17 -50 -22 -6
-26 0 -37 60 -5 26 -13 56 -17 67 -6 16 -2 15 32 -7 36 -22 39 -28 39 -70z
m-625 54 c0 -4 -5 -12 -12 -19 -9 -9 -8 -12 5 -12 9 0 17 -4 17 -9 0 -4 -11
-6 -25 -3 -14 2 -23 7 -21 11 3 4 -5 7 -17 8 -12 0 -16 -1 -9 -4 6 -3 12 -9
12 -14 0 -6 -6 -7 -12 -3 -7 4 -10 4 -6 -1 4 -4 2 -17 -4 -29 -6 -11 -7 -18
-3 -14 13 12 34 -15 23 -29 -8 -10 -5 -13 8 -14 11 0 14 -3 7 -6 -22 -8 -14
-22 9 -18 16 4 19 2 10 -7 -7 -7 -12 -16 -12 -22 0 -6 5 -5 12 2 17 17 27 15
24 -5 -2 -10 3 -24 11 -31 7 -7 13 -20 13 -28 0 -10 -8 -7 -23 10 -13 14 -26
24 -28 21 -3 -2 -14 16 -24 40 -11 25 -25 45 -32 45 -7 0 -10 6 -7 14 3 7 -6
26 -20 41 l-26 28 47 22 c26 13 54 20 62 17 14 -5 14 -3 2 11 -12 15 -12 17 3
11 9 -3 16 -9 16 -13z m145 -11 c3 -5 1 -10 -4 -10 -6 0 -11 5 -11 10 0 6 2
10 4 10 3 0 8 -4 11 -10z m545 -62 c0 -12 -8 -18 -23 -18 -20 0 -23 5 -21 28
1 15 2 28 3 30 4 10 41 -26 41 -40z m-720 8 c0 -3 -4 -8 -10 -11 -5 -3 -10 -1
-10 4 0 6 5 11 10 11 6 0 10 -2 10 -4z m340 0 c0 -2 -7 -7 -16 -10 -8 -3 -12
-2 -9 4 6 10 25 14 25 6z m-422 -41 c-3 -3 -9 2 -12 12 -6 14 -5 15 5 6 7 -7
10 -15 7 -18z m440 0 c-3 -3 -9 2 -12 12 -6 14 -5 15 5 6 7 -7 10 -15 7 -18z
m-748 -25 c0 -5 -5 -10 -11 -10 -5 0 -7 5 -4 10 3 6 8 10 11 10 2 0 4 -4 4
-10z m743 -5 c-3 -9 -8 -14 -10 -11 -3 3 -2 9 2 15 9 16 15 13 8 -4z m346 -7
c-15 -28 -29 -31 -27 -6 1 15 8 24 19 24 13 0 15 -4 8 -18z m71 12 c11 -7 11
-10 2 -10 -8 0 -10 -5 -6 -12 5 -9 2 -9 -9 1 -30 24 -19 41 13 21z m-486 -12
c-3 -4 0 -8 5 -8 6 0 11 -4 11 -10 0 -13 -27 -2 -33 14 -3 7 1 13 9 13 7 0 11
-4 8 -9z m536 8 c0 -11 -19 -15 -25 -6 -3 5 1 10 9 10 9 0 16 -2 16 -4z m-404
-35 c-4 -6 -13 -11 -19 -11 -8 0 -7 3 2 9 8 5 10 14 6 22 -6 11 -5 11 5 2 7
-6 9 -16 6 -22z m240 16 c7 -6 -12 -11 -43 -10 -6 0 -9 -6 -6 -15 5 -11 3 -13
-7 -7 -8 5 -11 4 -6 -3 7 -11 36 -9 59 4 9 6 9 5 0 -8 -7 -8 -10 -17 -7 -20 2
-3 -2 -8 -11 -12 -9 -3 -14 -2 -11 3 5 7 -18 8 -49 1 -5 -1 -17 -2 -25 -1 -11
1 -12 3 -3 9 8 5 9 13 3 22 -8 13 -10 12 -10 -2 0 -20 -39 -50 -53 -41 -6 3
-7 1 -3 -6 6 -9 13 -9 30 2 23 16 46 3 38 -21 -2 -6 2 -10 10 -9 7 2 10 2 6 0
-15 -8 -8 -23 10 -23 14 0 15 -2 2 -10 -11 -7 -18 -3 -27 13 -7 12 -12 19 -13
14 0 -4 -13 -1 -28 7 -33 17 -60 46 -43 46 6 0 11 6 11 14 0 7 10 17 23 21 12
4 27 9 32 11 6 2 19 5 30 6 11 2 26 9 33 15 13 13 46 13 58 0z m-999 -43 c21
-33 21 -35 3 -14 -49 58 -52 62 -39 58 7 -2 23 -22 36 -44z m59 -1 c-5 -12 7
-18 29 -13 6 1 5 -4 -2 -10 -9 -10 -16 -9 -33 3 -15 11 -18 16 -8 20 8 3 5 6
-7 6 -11 1 -26 10 -33 21 -12 19 -11 19 23 3 21 -10 34 -22 31 -30z m129 -1
c-3 -3 -11 0 -18 7 -9 10 -8 11 6 5 10 -3 15 -9 12 -12z m98 -13 c4 -16 3 -18
-9 -8 -7 6 -11 15 -8 20 8 13 11 11 17 -12z m145 9 c8 -8 8 -15 1 -24 -7 -8
-7 -14 1 -19 5 -3 10 -1 10 4 0 6 9 3 20 -6 14 -12 17 -20 9 -28 -12 -12 -60
-15 -52 -2 3 4 11 6 17 4 7 -3 13 1 13 8 0 7 -6 11 -14 8 -7 -3 -14 0 -14 6
-3 26 -4 30 -11 37 -10 10 -10 24 0 24 4 0 13 -5 20 -12z m-187 -15 c13 -16
12 -17 -3 -4 -10 7 -18 15 -18 17 0 8 8 3 21 -13z m-342 -27 c-3 -3 -11 5 -18
17 -13 21 -12 21 5 5 10 -10 16 -20 13 -22z m761 30 c0 -3 -4 -8 -10 -11 -5
-3 -10 -1 -10 4 0 6 5 11 10 11 6 0 10 -2 10 -4z m285 -15 c3 -5 2 -12 -3 -15
-5 -3 -9 1 -9 9 0 17 3 19 12 6z m235 5 c0 -3 -4 -8 -10 -11 -5 -3 -10 -1 -10
4 0 6 5 11 10 11 6 0 10 -2 10 -4z m-800 -71 c0 -2 -9 -1 -20 2 -11 3 -20 9
-20 13 0 5 -3 17 -7 27 -4 12 2 9 20 -10 15 -15 27 -30 27 -32z m-415 35 c3
-6 -1 -7 -9 -4 -18 7 -21 14 -7 14 6 0 13 -4 16 -10z m131 -5 c9 -8 11 -15 6
-15 -5 0 -15 7 -22 15 -7 8 -9 15 -6 15 4 0 14 -7 22 -15z m199 5 c3 -6 -1 -7
-9 -4 -18 7 -21 14 -7 14 6 0 13 -4 16 -10z m521 -32 c1 -29 0 -30 -12 -13
-10 14 -11 22 -3 32 15 17 14 18 15 -19z m-926 -2 c0 -2 -9 -2 -20 1 -11 3
-20 9 -20 15 0 5 9 4 20 -2 11 -6 20 -12 20 -14z m1084 6 c2 -4 -5 -9 -17 -9
-17 -2 -19 0 -7 7 18 12 18 12 24 2z m-1050 -18 c5 -14 4 -15 -9 -4 -17 14
-19 20 -6 20 5 0 12 -7 15 -16z m56 -4 c0 -5 -7 -7 -15 -4 -8 4 -12 10 -9 15
6 11 24 2 24 -11z m44 5 c-4 -8 -1 -15 7 -15 7 0 10 -2 7 -5 -3 -3 -13 -3 -22
1 -13 5 -14 9 -5 20 15 18 20 18 13 -1z m541 -7 c-4 -38 -5 -39 -14 -34 -10 7
-9 25 2 44 12 18 15 15 12 -10z m75 12 c0 -5 -5 -10 -11 -10 -5 0 -7 5 -4 10
3 6 8 10 11 10 2 0 4 -4 4 -10z m250 -21 c0 -5 -5 -9 -12 -9 -6 0 -8 3 -5 7 4
3 1 13 -6 22 -11 14 -10 14 6 2 9 -7 17 -17 17 -22z m-281 8 c8 -10 7 -14 -2
-14 -8 0 -14 6 -14 14 0 7 1 13 2 13 2 0 8 -6 14 -13z m173 -39 c-5 -5 -8 0
-6 14 4 40 7 44 11 19 3 -13 1 -27 -5 -33z m86 22 c10 -17 10 -20 -4 -20 -8 0
-12 5 -9 10 3 6 1 10 -4 10 -6 0 -11 5 -11 10 0 17 14 11 28 -10z m72 12 c0
-4 -10 -9 -22 -9 -18 -2 -20 0 -8 7 18 12 30 13 30 2z m-1120 -20 c0 -4 -12
-8 -27 -9 -24 -1 -25 -1 -8 7 26 11 35 12 35 2z m658 -22 c-1 -16 -6 -30 -11
-30 -4 0 -5 -5 -1 -12 5 -7 3 -8 -6 -3 -10 6 -12 3 -7 -14 3 -13 -1 -40 -8
-62 -8 -22 -10 -37 -5 -34 6 3 10 12 10 18 1 7 7 26 14 42 13 28 14 28 12 5
-3 -34 -29 -85 -41 -82 -12 3 -15 60 -5 82 15 32 32 86 33 103 1 9 5 17 9 17
5 0 7 -13 6 -30z m42 4 c0 -8 -4 -14 -8 -14 -4 0 -8 9 -8 19 0 11 4 17 8 15 4
-3 8 -12 8 -20z m680 16 c0 -5 -5 -10 -11 -10 -5 0 -7 5 -4 10 3 6 8 10 11 10
2 0 4 -4 4 -10z m-360 -45 c0 -7 9 -20 20 -30 16 -14 17 -21 8 -32 -10 -13
-13 -11 -22 9 -5 12 -8 27 -7 32 1 5 -6 6 -15 2 -14 -5 -15 -4 -4 9 10 12 9
16 -4 21 -9 3 -16 13 -16 22 0 13 3 12 20 -3 11 -10 20 -23 20 -30z m-899 21
c5 3 21 8 36 10 23 4 25 3 13 -11 -7 -9 -20 -13 -28 -10 -8 3 -20 1 -26 -4 -8
-7 -12 -4 -13 12 0 12 1 16 4 9 3 -6 9 -10 14 -6z m739 -6 c-6 -11 -13 -20
-16 -20 -2 0 0 9 6 20 6 11 13 20 16 20 2 0 0 -9 -6 -20z m-658 1 c-8 -4 -13
-11 -13 -15 3 -21 -1 -26 -21 -25 -22 0 -22 1 -3 8 11 5 21 13 21 20 2 19 4
21 17 21 9 0 9 -2 -1 -9z m91 -13 c-12 -13 -38 -40 -57 -61 -35 -37 -75 -52
-83 -31 -2 6 2 11 9 11 29 1 44 10 90 56 46 46 83 68 41 25z m795 -3 c-3 -3
-9 2 -12 12 -6 14 -5 15 5 6 7 -7 10 -15 7 -18z m-1004 3 c-3 -4 -9 -8 -15 -8
-5 0 -9 4 -9 8 0 5 7 9 15 9 8 0 12 -4 9 -9z m1354 -11 c2 -10 -3 -17 -12 -17
-9 0 -14 8 -13 20 2 24 21 21 25 -3z m-881 -6 c0 -11 -5 -18 -9 -15 -4 3 -5
11 -1 19 7 21 12 19 10 -4z m403 9 c0 -5 -2 -10 -4 -10 -3 0 -8 5 -11 10 -3 6
-1 10 4 10 6 0 11 -4 11 -10z m-905 -10 c3 -5 1 -10 -4 -10 -6 0 -11 5 -11 10
0 6 2 10 4 10 3 0 8 -4 11 -10z m315 5 c0 -2 -10 -10 -22 -16 -21 -11 -22 -11
-9 4 13 16 31 23 31 12z m102 -2 c-6 -2 -10 -9 -6 -14 3 -5 -2 -9 -12 -9 -13
0 -14 3 -4 15 7 8 18 15 24 14 7 0 6 -2 -2 -6z m626 -19 c5 3 9 -1 9 -9 0 -8
-4 -15 -9 -15 -5 0 -6 -6 -2 -12 4 -8 3 -10 -2 -5 -5 5 -9 12 -9 15 -1 4 -6
18 -13 32 -12 23 -12 23 2 6 8 -10 19 -16 24 -12z m-415 1 c-3 -9 -8 -14 -10
-11 -3 3 -2 9 2 15 9 16 15 13 8 -4z m137 4 c0 -5 -4 -7 -10 -4 -5 3 -10 -2
-10 -11 0 -10 -3 -15 -6 -11 -9 9 3 37 16 37 5 0 10 -5 10 -11z m-434 -47
c-15 -15 -15 -15 -4 10 7 15 15 23 17 17 2 -6 -4 -18 -13 -27z m194 18 c-6
-11 -13 -20 -16 -20 -2 0 0 9 6 20 6 11 13 20 16 20 2 0 0 -9 -6 -20z m295 10
c-3 -5 -12 -10 -18 -10 -7 0 -6 4 3 10 19 12 23 12 15 0z m120 -10 c3 -5 1
-10 -4 -10 -6 0 -11 5 -11 10 0 6 2 10 4 10 3 0 8 -4 11 -10z m-928 -6 c-3 -3
-12 -4 -19 -1 -8 3 -5 6 6 6 11 1 17 -2 13 -5z m216 -9 c-3 -9 -8 -14 -10 -11
-3 3 -2 9 2 15 9 16 15 13 8 -4z m409 3 c-6 -7 -13 -30 -17 -51 -7 -38 -21
-55 -33 -42 -4 4 -1 10 6 12 6 3 12 13 12 23 0 26 21 70 33 70 6 0 5 -5 -1
-12z m61 -5 c-4 -11 -3 -14 5 -9 16 10 15 1 -1 -12 -10 -8 -13 -5 -15 14 -1
13 3 24 8 24 5 0 6 -7 3 -17z m648 0 c13 -16 12 -17 -3 -4 -10 7 -18 15 -18
17 0 8 8 3 21 -13z m-1081 -3 c0 -5 -8 -10 -17 -10 -15 0 -16 2 -3 10 19 12
20 12 20 0z m190 -5 c0 -8 -4 -15 -10 -15 -5 0 -7 7 -4 15 4 8 8 15 10 15 2 0
4 -7 4 -15z m415 5 c3 -5 1 -10 -4 -10 -6 0 -11 5 -11 10 0 6 2 10 4 10 3 0 8
-4 11 -10z m143 -31 c4 0 15 -2 25 -4 9 -2 17 2 17 8 0 7 4 6 10 -3 7 -12 13
-11 34 10 20 18 26 20 26 8 0 -9 -10 -18 -21 -21 -15 -4 -20 -11 -16 -21 4 -9
2 -16 -4 -16 -5 0 -12 6 -15 13 -3 8 -11 14 -19 14 -8 0 -12 -4 -9 -9 3 -5 0
-17 -7 -26 -11 -13 -8 -12 9 2 12 11 22 14 22 8 0 -6 -9 -16 -20 -22 -19 -10
-21 -9 -19 6 0 4 -3 10 -8 13 -16 11 -33 62 -26 74 5 8 9 4 11 -10 2 -13 6
-23 10 -24z m-216 9 c-7 -7 -12 -8 -12 -2 0 14 12 26 19 19 2 -3 -1 -11 -7
-17z m172 -40 c-3 -4 0 -8 5 -8 14 0 14 16 0 43 -9 18 -9 20 2 10 16 -16 22
-76 6 -66 -7 4 -8 0 -3 -12 7 -18 6 -18 -13 -1 -11 10 -21 30 -23 45 -2 19 -8
25 -22 23 -15 -3 -16 -1 -5 12 12 13 17 12 36 -11 12 -15 20 -30 17 -35z
m-681 37 c-3 -9 -8 -14 -10 -11 -3 3 -2 9 2 15 9 16 15 13 8 -4z m90 -24 c-9
-12 -23 -21 -31 -21 -7 0 -1 11 14 25 32 29 44 27 17 -4z m491 14 c-4 -8 -1
-15 5 -15 6 0 11 -7 11 -16 0 -9 8 -23 18 -31 16 -14 16 -14 0 -9 -22 7 -24
-10 -3 -18 11 -4 15 -17 13 -45 -2 -26 -7 -37 -15 -34 -7 3 -13 14 -13 25 0
10 4 16 10 13 6 -3 7 1 4 9 -3 9 -10 14 -14 11 -5 -3 -11 -1 -15 5 -3 5 -11
10 -17 10 -7 0 -7 -4 1 -13 6 -8 8 -17 4 -20 -3 -4 -1 -7 5 -7 7 0 12 -5 12
-10 0 -6 -7 -6 -19 2 -14 9 -19 23 -18 55 0 40 1 42 18 27 11 -10 19 -12 23
-5 4 6 -2 18 -14 28 -29 25 -27 40 7 52 1 1 0 -6 -3 -14z m51 -15 c-3 -5 1
-19 9 -31 8 -12 12 -27 10 -34 -3 -6 2 -18 11 -25 12 -10 13 -16 3 -28 -10
-13 -10 -14 0 -8 7 4 12 1 12 -8 0 -9 5 -16 11 -16 7 0 9 10 5 25 -5 19 -3 23
9 19 8 -4 15 -1 15 6 0 6 4 9 9 5 5 -3 13 -1 16 5 5 8 11 7 21 -1 20 -17 17
-28 -6 -24 -11 2 -22 -1 -25 -6 -4 -5 -11 -7 -16 -4 -5 4 -9 1 -9 -4 0 -6 5
-11 12 -11 26 0 -9 -19 -40 -22 -34 -2 -42 -12 -17 -22 8 -3 15 -11 15 -17 0
-8 -7 -7 -22 3 -19 13 -21 22 -19 81 2 46 -2 73 -13 90 -15 23 -13 37 6 37 5
0 6 -4 3 -10z m223 -15 c-3 -3 -9 2 -12 12 -6 14 -5 15 5 6 7 -7 10 -15 7 -18z
m-868 11 c0 -3 -4 -8 -10 -11 -5 -3 -10 -1 -10 4 0 6 5 11 10 11 6 0 10 -2 10
-4z m170 -6 c0 -5 -2 -10 -4 -10 -3 0 -8 5 -11 10 -3 6 -1 10 4 10 6 0 11 -4
11 -10z m356 -54 c-9 -15 -12 -26 -6 -26 6 0 8 -5 5 -10 -4 -6 -11 -8 -16 -5
-5 4 -9 1 -9 -5 0 -6 -4 -8 -10 -5 -5 3 -10 13 -10 21 0 8 5 12 10 9 6 -3 10
0 10 8 0 8 7 18 16 21 10 4 14 12 9 24 -5 13 -4 14 6 5 9 -9 8 -18 -5 -37z
m484 40 c0 -3 -4 -8 -10 -11 -5 -3 -10 -1 -10 4 0 6 5 11 10 11 6 0 10 -2 10
-4z m-979 -29 c-10 -9 -11 -8 -5 6 3 10 9 15 12 12 3 -3 0 -11 -7 -18z m111
-19 c-6 -6 -7 0 -4 19 5 21 7 23 10 9 2 -10 0 -22 -6 -28z m961 22 c3 -11 1
-18 -4 -14 -5 3 -9 12 -9 20 0 20 7 17 13 -6z m-913 0 c0 -5 -2 -10 -4 -10 -3
0 -8 5 -11 10 -3 6 -1 10 4 10 6 0 11 -4 11 -10z m-100 -22 c0 -4 -7 -8 -15
-8 -8 0 -15 4 -15 8 0 5 7 9 15 9 8 0 15 -4 15 -9z m736 3 c12 9 13 9 9 -3 -4
-9 -17 -15 -31 -15 -20 0 -22 2 -12 14 8 10 13 12 16 4 3 -9 8 -9 18 0z m336
-16 c8 -14 8 -16 -3 -9 -8 5 -18 9 -23 9 -5 0 -11 5 -13 12 -6 18 28 8 39 -12z
m-984 -13 c-2 -9 2 -16 8 -15 7 1 9 -8 6 -23 l-4 -25 -14 27 c-16 31 -19 68
-4 59 6 -4 9 -14 8 -23z m57 18 c3 -5 1 -10 -4 -10 -6 0 -11 5 -11 10 0 6 2
10 4 10 3 0 8 -4 11 -10z m-285 -10 c0 -5 -4 -10 -10 -10 -5 0 -10 5 -10 10 0
6 5 10 10 10 6 0 10 -4 10 -10z m120 -15 c0 -8 -4 -15 -10 -15 -5 0 -10 7 -10
15 0 8 5 15 10 15 6 0 10 -7 10 -15z m1084 -47 c-6 -9 -64 44 -58 54 2 3 17
-5 34 -20 16 -14 27 -29 24 -34z m-1128 40 c4 4 2 -1 -6 -11 -8 -12 -22 -17
-36 -14 -14 2 -25 -2 -28 -9 -6 -15 -26 -19 -26 -6 1 19 20 35 44 35 16 0 23
4 19 11 -4 7 -1 6 9 -1 8 -7 19 -9 24 -5z m452 -6 c2 -7 -2 -10 -12 -6 -9 3
-16 11 -16 16 0 13 23 5 28 -10z m-52 -7 c-8 -8 -18 -15 -22 -15 -3 0 -1 7 6
15 7 8 17 15 22 15 5 0 3 -7 -6 -15z m99 -5 c-3 -5 -11 -10 -16 -10 -6 0 -7 5
-4 10 3 6 11 10 16 10 6 0 7 -4 4 -10z m583 -25 c-3 -3 -9 2 -12 12 -6 14 -5
15 5 6 7 -7 10 -15 7 -18z m-600 -9 c-7 -8 -17 -12 -22 -9 -4 3 -2 9 5 14 22
13 31 11 17 -5z m339 -1 c0 -8 -4 -15 -9 -15 -10 0 -11 14 -1 23 9 10 10 9 10
-8z m68 5 c3 -6 -1 -7 -9 -4 -18 7 -21 14 -7 14 6 0 13 -4 16 -10z m-86 -42
c1 -4 -10 -7 -23 -6 -14 1 -22 6 -20 10 3 5 10 6 15 3 5 -4 9 4 10 17 0 22 1
22 9 3 5 -11 9 -23 9 -27z m168 27 c0 -8 -4 -12 -9 -9 -5 3 -6 10 -3 15 9 13
12 11 12 -6z m108 -15 c3 -5 1 -10 -4 -10 -6 0 -11 5 -11 10 0 6 2 10 4 10 3
0 8 -4 11 -10z m40 -28 c-3 -3 -11 0 -18 7 -9 10 -8 11 6 5 10 -3 15 -9 12
-12z m-66 -36 c9 -11 9 -16 -1 -22 -7 -4 -10 -4 -6 1 4 4 3 14 -3 22 -6 7 -9
13 -6 13 2 0 10 -6 16 -14z m-26 -47 c2 -19 8 -33 15 -32 7 2 9 -4 5 -14 -6
-14 -8 -14 -20 3 -7 10 -14 24 -14 31 -1 7 -2 19 -3 26 -3 14 4 30 10 24 2 -2
5 -19 7 -38z m-93 -3 c0 -3 -4 -8 -10 -11 -5 -3 -10 -1 -10 4 0 6 5 11 10 11
6 0 10 -2 10 -4z m-50 -65 c0 -5 -12 -16 -26 -26 -15 -9 -23 -12 -20 -6 4 6 1
11 -6 11 -7 1 -2 7 12 15 29 17 40 18 40 6z m-67 -56 c-3 -9 -8 -14 -10 -11
-3 3 -2 9 2 15 9 16 15 13 8 -4z m25 -30 c-3 -3 -9 2 -12 12 -6 14 -5 15 5 6
7 -7 10 -15 7 -18z"/>
<path d="M1514 2866 c-23 -18 1 -16 31 2 15 8 16 11 4 12 -8 0 -24 -6 -35 -14z"/>
<path d="M1495 2830 c-3 -5 -1 -10 4 -10 6 0 11 5 11 10 0 6 -2 10 -4 10 -3 0
-8 -4 -11 -10z"/>
<path d="M1540 2760 c0 -5 5 -10 10 -10 6 0 10 5 10 10 0 6 -4 10 -10 10 -5 0
-10 -4 -10 -10z"/>
<path d="M1273 2575 c0 -8 4 -12 9 -9 5 3 6 10 3 15 -9 13 -12 11 -12 -6z"/>
<path d="M1310 2410 c-13 -8 -12 -10 3 -10 9 0 17 5 17 10 0 12 -1 12 -20 0z"/>
<path d="M1442 3258 c-6 -8 -6 -21 -1 -33 l9 -20 -2 20 c-2 11 1 26 5 33 5 6
6 12 4 12 -3 0 -9 -6 -15 -12z"/>
<path d="M1460 3220 c0 -5 5 -10 10 -10 6 0 10 5 10 10 0 6 -4 10 -10 10 -5 0
-10 -4 -10 -10z"/>
<path d="M1210 3120 c0 -5 5 -10 11 -10 5 0 7 5 4 10 -3 6 -8 10 -11 10 -2 0
-4 -4 -4 -10z"/>
<path d="M1358 3118 c10 -13 10 -17 0 -21 -8 -4 -7 -6 5 -6 9 -1 17 3 17 8 0
5 -8 15 -17 22 -16 13 -17 12 -5 -3z"/>
<path d="M1325 3100 c-3 -5 -1 -10 4 -10 6 0 11 5 11 10 0 6 -2 10 -4 10 -3 0
-8 -4 -11 -10z"/>
<path d="M888 2895 c2 -14 8 -25 13 -25 14 0 11 26 -5 39 -11 9 -12 6 -8 -14z"/>
<path d="M976 2884 c-9 -23 -7 -36 4 -29 11 7 37 -40 44 -78 2 -14 10 -34 16
-44 21 -35 -1 47 -30 109 -19 41 -30 53 -34 42z"/>
<path d="M1356 2879 c2 -4 -2 -10 -8 -13 -7 -4 -3 -4 9 -2 16 3 27 -4 39 -23
24 -36 44 -55 51 -47 3 3 -3 14 -14 23 -10 10 -22 26 -26 36 -3 9 -11 17 -17
17 -6 0 -9 4 -5 9 3 6 -3 9 -14 8 -11 0 -18 -4 -15 -8z"/>
<path d="M812 2855 c6 -14 17 -25 25 -25 21 0 15 16 -12 34 -25 16 -25 16 -13
-9z"/>
<path d="M850 2863 c0 -4 5 -15 10 -23 8 -13 10 -13 10 2 0 9 -4 20 -10 23 -5
3 -10 3 -10 -2z"/>
<path d="M675 2820 c-3 -5 -1 -10 4 -10 6 0 11 5 11 10 0 6 -2 10 -4 10 -3 0
-8 -4 -11 -10z"/>
<path d="M1216 2815 c-3 -9 -10 -14 -16 -10 -5 3 -12 -7 -16 -22 -3 -15 -10
-41 -15 -57 -14 -43 -11 -56 11 -56 23 0 23 0 11 33 -8 19 -4 35 15 72 14 26
23 49 21 51 -3 3 -7 -2 -11 -11z"/>
<path d="M695 2731 c-3 -5 -1 -12 5 -16 5 -3 10 1 10 9 0 18 -6 21 -15 7z"/>
<path d="M721 2728 c-1 -10 2 -18 7 -19 4 0 15 -2 25 -4 10 -2 17 3 17 12 0
10 -6 14 -20 10 -10 -3 -21 0 -24 7 -2 6 -5 3 -5 -6z"/>
<path d="M605 2670 c3 -5 11 -10 16 -10 6 0 7 5 4 10 -3 6 -11 10 -16 10 -6 0
-7 -4 -4 -10z"/>
<path d="M640 2672 c0 -5 7 -9 15 -9 8 0 12 4 9 9 -3 4 -9 8 -15 8 -5 0 -9 -4
-9 -8z"/>
<path d="M4145 2620 c-3 -6 1 -7 9 -4 18 7 21 14 7 14 -6 0 -13 -4 -16 -10z"/>
<path d="M660 2611 c0 -7 -4 -9 -10 -6 -5 3 -10 1 -10 -4 0 -6 4 -11 9 -11 13
0 25 20 17 27 -3 4 -6 1 -6 -6z"/>
<path d="M500 2586 c0 -2 8 -10 18 -17 15 -13 16 -12 3 4 -13 16 -21 21 -21
13z"/>
<path d="M591 2570 c0 -21 36 -63 49 -55 6 4 7 -1 4 -12 -5 -15 -4 -16 5 -3
15 21 14 30 -4 30 -8 0 -15 5 -15 12 0 6 -3 8 -7 4 -4 -3 -13 4 -20 16 -7 14
-12 17 -12 8z"/>
<path d="M550 2554 c0 -6 6 -17 14 -23 11 -9 16 -9 22 1 4 7 4 10 -1 6 -4 -4
-14 0 -21 10 -7 9 -14 12 -14 6z"/>
<path d="M470 2542 c0 -5 8 -17 19 -26 16 -15 19 -15 24 -1 4 9 1 15 -8 15 -8
0 -15 5 -15 10 0 6 -4 10 -10 10 -5 0 -10 -4 -10 -8z"/>
<path d="M250 2520 c0 -5 5 -10 11 -10 5 0 7 5 4 10 -3 6 -8 10 -11 10 -2 0
-4 -4 -4 -10z"/>
<path d="M110 2496 c0 -2 8 -10 18 -17 15 -13 16 -12 3 4 -13 16 -21 21 -21
13z"/>
<path d="M75 2420 c3 -5 8 -10 11 -10 2 0 4 5 4 10 0 6 -5 10 -11 10 -5 0 -7
-4 -4 -10z"/>
<path d="M35 2400 c3 -5 8 -10 11 -10 2 0 4 5 4 10 0 6 -5 10 -11 10 -5 0 -7
-4 -4 -10z"/>
<path d="M65 2389 c4 -6 14 -8 22 -5 9 4 22 1 30 -5 15 -13 28 -6 18 10 -3 6
-22 11 -41 11 -22 0 -33 -4 -29 -11z"/>
<path d="M136 2227 c3 -10 9 -15 12 -12 3 3 0 11 -7 18 -10 9 -11 8 -5 -6z"/>
<path d="M956 2034 c-8 -21 -8 -39 1 -30 8 7 15 46 9 46 -2 0 -7 -7 -10 -16z"/>
<path d="M1800 2023 c0 -5 13 -17 28 -27 l27 -19 -24 26 c-26 28 -31 32 -31
20z"/>
<path d="M916 1998 c3 -5 10 -6 15 -3 13 9 11 12 -6 12 -8 0 -12 -4 -9 -9z"/>
<path d="M445 1970 c-3 -5 -1 -10 4 -10 6 0 11 5 11 10 0 6 -2 10 -4 10 -3 0
-8 -4 -11 -10z"/>
<path d="M686 1945 c-3 -9 -6 -26 -5 -38 1 -16 4 -12 10 12 10 34 6 55 -5 26z"/>
<path d="M554 1909 c-19 -22 -19 -22 4 -8 12 8 22 17 22 21 0 12 -6 9 -26 -13z"/>
<path d="M880 1920 c-9 -6 -10 -10 -3 -10 6 0 15 5 18 10 8 12 4 12 -15 0z"/>
<path d="M1151 1904 c0 -10 8 -38 17 -61 16 -39 18 -41 30 -23 7 12 8 21 2 25
-6 3 -10 0 -11 -7 -1 -12 -17 29 -23 59 -4 22 -16 27 -15 7z"/>
<path d="M1814 1884 c3 -9 6 -20 6 -25 0 -6 4 -8 9 -5 5 4 12 0 14 -6 3 -8 6
-5 6 5 1 18 -21 47 -34 47 -4 0 -4 -7 -1 -16z"/>
<path d="M505 1880 c-3 -5 1 -10 9 -10 9 0 16 5 16 10 0 6 -4 10 -9 10 -6 0
-13 -4 -16 -10z"/>
<path d="M566 1868 c3 -4 2 -8 -3 -8 -4 0 -16 -14 -25 -30 -23 -41 -16 -38 21
8 20 26 25 39 16 39 -8 0 -12 -4 -9 -9z"/>
<path d="M1115 1869 c-4 -6 -5 -12 -2 -15 2 -3 7 2 10 11 7 17 1 20 -8 4z"/>
<path d="M1256 1867 c3 -10 9 -15 12 -12 3 3 0 11 -7 18 -10 9 -11 8 -5 -6z"/>
<path d="M1880 1860 c0 -5 9 -8 20 -7 21 1 18 10 -5 13 -8 1 -15 -2 -15 -6z"/>
<path d="M1142 1830 c0 -14 2 -19 5 -12 2 6 2 18 0 25 -3 6 -5 1 -5 -13z"/>
<path d="M1103 1825 c-3 -9 -3 -18 -1 -21 3 -3 8 4 11 16 6 23 -1 27 -10 5z"/>
<path d="M1857 1833 c-10 -9 -9 -23 1 -23 5 0 9 7 9 15 0 17 -1 18 -10 8z"/>
<path d="M1228 1787 c-4 -18 -1 -24 9 -20 15 6 16 13 4 31 -6 10 -10 7 -13
-11z"/>
<path d="M1750 1720 c0 -5 5 -10 10 -10 6 0 10 5 10 10 0 6 -4 10 -10 10 -5 0
-10 -4 -10 -10z"/>
<path d="M1740 1646 c0 -2 9 -6 20 -9 11 -3 18 -1 14 4 -5 9 -34 13 -34 5z"/>
<path d="M1626 1587 c3 -10 9 -15 12 -12 3 3 0 11 -7 18 -10 9 -11 8 -5 -6z"/>
<path d="M1481 1571 c-8 -14 -7 -20 2 -24 7 -3 13 5 13 19 2 29 -2 30 -15 5z"/>
<path d="M1537 1566 c-4 -10 -5 -21 -2 -24 9 -9 17 6 13 25 -3 17 -4 17 -11
-1z"/>
</g>
</svg>
