<svg width="64" height="66" fill="none" xmlns="http://www.w3.org/2000/svg"><path stroke="red" stroke-width="4" d="M2 2h60v60H2z"/><path d="M29.3 39.6V37l.4-2 1-1.7 1.7-1.6a47.9 47.9 0 003-3.2 9 9 0 001-1.8c.3-.6.5-1.2.5-1.7 0-1.5-.4-2.5-1.2-3.2-.8-.6-1.9-1-3.3-1-.6 0-1.2.1-1.7.3a4 4 0 00-1.4.7c-.4.3-.8.7-1 1.3-.3.5-.4 1-.4 1.8h-6.6c0-1.6.3-3 1-4.1a8.4 8.4 0 012.3-3c1-.8 2.1-1.4 3.4-1.7a17 17 0 019 0c1.4.4 2.5 1 3.5 1.7 1 .8 1.7 1.7 2.2 2.9a9.8 9.8 0 01.2 7c-.4.9-1 1.8-1.5 2.5l-2 2.3a93 93 0 01-3.4 3.3 4 4 0 00-.8 2.3v1.6h-6zm-1 7.1c0-.5.1-1 .3-1.4a3.3 3.3 0 012-2l1.5-.2a4.2 4.2 0 012.8 1l.8 1.2.2 1.4a3.5 3.5 0 01-1 2.6c-.3.3-.7.5-1.2.7-.5.2-1 .3-1.6.3-.6 0-1.1-.1-1.6-.3l-1.2-.7a3 3 0 01-.7-1.2c-.2-.4-.3-.9-.3-1.4z" fill="red"/></svg>